# xmcd CD database file
#
# Track frame offsets:
#	333
#	22879
#	49274
#	74343
#	98737
#	123567
#	154188
#	185377
#	221880
#	260811
#	284920
#	312108
#
# Disc length: 4436 seconds
#
# Revision: 0
# Processed by: cddbd v1.5.1PL2 Copyright (c) Steve Scherf et al.
# Submitted via: CDex 1.51
#
DISCID=bb11500c
DTITLE=Chuck Gottesman - My Hard Luck Story (and other tales of woe)
DYEAR=2005
DGENRE=Jazz
TTITLE0=My Hard Luck Story
TTITLE1=Indian Summer
TTITLE2=Kriegschweine - "War Pigs"
TTITLE3=Lenny Blue
TTITLE4=Sideways Eyes
TTITLE5=Stormwatch
TTITLE6=North Wind
TTITLE7=Separacion
TTITLE8=Looking Glass Blues
TTITLE9=Red Lement (Live)
TTITLE10=Caribbean Fire Dance (Live)
TTITLE11=My Hard Luck Story (Live - Big Band)
EXTD=YEAR: 2005
EXTT0=
EXTT1=
EXTT2=
EXTT3=
EXTT4=
EXTT5=
EXTT6=
EXTT7=
EXTT8=
EXTT9=
EXTT10=
EXTT11=
PLAYORDER=
